<?xml version="1.0" encoding="utf-8"?>
<!-- Generator: Adobe Illustrator 24.1.0, SVG Export Plug-In . SVG Version: 6.00 Build 0)  -->
<svg version="1.1" id="图层_1" xmlns="http://www.w3.org/2000/svg" xmlns:xlink="http://www.w3.org/1999/xlink" x="0px" y="0px"
	 viewBox="0 0 25 25" style="enable-background:new 0 0 25 25;" xml:space="preserve">
<style type="text/css">
	.st0{fill:#FFFFFF;}
</style>
<g>
	<path class="st0" d="M1.1,9.8h4.7C8,9.8,9.8,8,9.8,5.8V1.1C9.8,0.5,9.3,0,8.8,0S7.7,0.5,7.7,1.1v4.7c0,1.1-0.9,1.9-1.9,1.9H1.1
		C0.5,7.7,0,8.2,0,8.8S0.5,9.8,1.1,9.8z"/>
	<path class="st0" d="M5.8,15.2H1.1c-0.6,0-1.1,0.5-1.1,1.1c0,0.6,0.5,1.1,1.1,1.1h4.7c1.1,0,1.9,0.9,1.9,1.9v4.7
		c0,0.6,0.5,1.1,1.1,1.1s1.1-0.5,1.1-1.1v-4.7C9.8,17,8,15.2,5.8,15.2z"/>
	<path class="st0" d="M19.2,9.8h4.7c0.6,0,1.1-0.5,1.1-1.1s-0.5-1.1-1.1-1.1h-4.7c-1.1,0-1.9-0.9-1.9-1.9V1.1c0-0.6-0.5-1.1-1.1-1.1
		c-0.6,0-1.1,0.5-1.1,1.1v4.7C15.2,8,17,9.8,19.2,9.8z"/>
	<path class="st0" d="M23.9,15.2h-4.7c-2.2,0-4.1,1.8-4.1,4.1v4.7c0,0.6,0.5,1.1,1.1,1.1c0.6,0,1.1-0.5,1.1-1.1v-4.7
		c0-1.1,0.9-1.9,1.9-1.9h4.7c0.6,0,1.1-0.5,1.1-1.1C25,15.7,24.5,15.2,23.9,15.2z"/>
</g>
</svg>
