<svg xmlns="http://www.w3.org/2000/svg" width="24" height="24" viewBox="0 0 24 24">
  <g id="icon-放大" transform="translate(-1752.023 271.475)">
    <path id="路径_7" data-name="路径 7" d="M7.482,15.046l-3.5,3.5L2.1,20.432V16.663A.98.98,0,0,0,1.052,15.62.987.987,0,0,0,0,16.663v6.286A.993.993,0,0,0,1.052,24H7.338a1.049,1.049,0,0,0,0-2.093H3.566l1.885-1.888,3.5-3.5a1.04,1.04,0,0,0-1.471-1.471ZM22.946,0H16.661a.987.987,0,0,0-1.043,1.049A.98.98,0,0,0,16.661,2.1h3.772L18.548,3.981l-3.5,3.5a1.04,1.04,0,0,0,1.471,1.471l3.5-3.5L21.9,3.566V7.336a1.049,1.049,0,0,0,2.094,0V1.051A.993.993,0,0,0,22.947,0Z" transform="translate(1776.023 -271.475) rotate(90)" fill="#fff"/>
    <path id="路径_8" data-name="路径 8" d="M13.179,15.742l-3.5,3.5L7.793,21.128V17.359A.98.98,0,0,0,6.75,16.316.987.987,0,0,0,5.7,17.359v6.286a.993.993,0,0,0,1.05,1.049h6.286a1.049,1.049,0,0,0,0-2.093H9.264l1.885-1.888,3.5-3.5a1.04,1.04,0,0,0-1.471-1.471ZM28.644.7H22.359a.987.987,0,0,0-1.043,1.049.98.98,0,0,0,1.043,1.044h3.772L24.245,4.677l-3.5,3.5a1.04,1.04,0,0,0,1.471,1.471l3.5-3.5L27.6,4.262V8.032a1.049,1.049,0,0,0,2.094,0V1.747A.993.993,0,0,0,28.645.7Z" transform="translate(1746.326 -272.171)" fill="#fff"/>
  </g>
</svg>
